<?xml version="1.0" encoding="UTF-8" standalone="no"?><!-- Generator: Gravit.io --><svg xmlns="http://www.w3.org/2000/svg" xmlns:xlink="http://www.w3.org/1999/xlink" style="isolation:isolate" viewBox="0 0 150 80" width="150pt" height="80pt"><defs><clipPath id="_clipPath_r05fvJPtCMpHqTnqoIaK3zuJZrQiTBFh"><rect width="150" height="80"/></clipPath></defs><g clip-path="url(#_clipPath_r05fvJPtCMpHqTnqoIaK3zuJZrQiTBFh)"><path d=" M 69 10 L 69 30 L 85 20 L 69 10 Z " fill="rgb(255,255,255)"/><path d=" M 28 27.5 L 28 12.5 L 16 20 L 28 27.5 Z " fill="rgb(255,255,255)"/><path d=" M 122 12.5 L 122 27.5 L 134 20 L 122 12.5 Z " fill="rgb(255,255,255)"/><rect x="15" y="12.5" width="2" height="15" transform="matrix(1,0,0,1,0,0)" fill="rgb(255,255,255)"/><rect x="69" y="51" width="5" height="18" transform="matrix(1,0,0,1,0,0)" fill="rgb(255,255,255)"/><rect x="80" y="51" width="5" height="18" transform="matrix(1,0,0,1,0,0)" fill="rgb(255,255,255)"/><rect x="133" y="12.5" width="2" height="15" transform="matrix(1,0,0,1,0,0)" fill="rgb(255,255,255)"/></g></svg>